<svg width="30" height="23" viewBox="0 0 30 23" fill="none" xmlns="http://www.w3.org/2000/svg">
<rect x="0.5" y="7.53149" width="18.9375" height="14.0814" rx="2.5" stroke="#5E5E5E"/>
<path d="M19.4844 11.0236H21.478C21.6561 11.0236 21.831 10.9761 21.9845 10.8859L27.0404 7.91631C27.7071 7.52476 28.5469 8.00545 28.5469 8.77858V20.8094C28.5469 21.5825 27.7071 22.0632 27.0404 21.6717L21.9845 18.7021C21.831 18.6119 21.6561 18.5644 21.478 18.5644H19.4844" stroke="#5E5E5E"/>
<path d="M13.1406 7.47494V6.25708C13.1406 5.70479 13.5883 5.25708 14.1406 5.25708H14.8594C15.4117 5.25708 15.8594 5.7048 15.8594 6.25708V7.47494" stroke="#5E5E5E"/>
<path d="M14.5 5.7006V2.77417C14.5 2.22188 14.0523 1.77417 13.5 1.77417H5.89062" stroke="#5E5E5E"/>
<rect x="0.5" y="0.5" width="5.34375" height="2.54857" rx="1.27429" stroke="#5E5E5E"/>
</svg>
